<?xml version="1.0" encoding="iso-8859-1"?>
<!-- Generator: Adobe Illustrator 19.0.0, SVG Export Plug-In . SVG Version: 6.00 Build 0)  -->
<svg version="1.1" id="Layer_1" xmlns="http://www.w3.org/2000/svg" xmlns:xlink="http://www.w3.org/1999/xlink" x="0px" y="0px"
	 viewBox="0 0 494.474 494.474" style="enable-background:new 0 0 494.474 494.474;" xml:space="preserve">
<g id="XMLID_861_">
	<g id="XMLID_854_">
		<polygon style="fill:#E0D6C6;" points="432.186,354.278 247.24,485.283 61.326,354.278 61.326,7.5 432.186,7.5 		"/>
	</g>
	<g id="XMLID_148_">
		<polygon style="fill:#CBBBA0;" points="247.24,485.283 61.326,354.278 61.326,7.5 247.237,7.5 		"/>
	</g>
	<g id="XMLID_915_">
		<g id="XMLID_791_">
			<circle style="fill:#A1083E;" cx="247.237" cy="300.335" r="69.356"/>
		</g>
		<g id="XMLID_826_">
			<path style="fill:#D60B52;" d="M247.237,230.979c38.304,0,69.356,31.052,69.356,69.356s-31.052,69.356-69.356,69.356"/>
		</g>
		<g id="XMLID_789_">
			<g id="XMLID_741_">
				<path style="fill:#1D1D1B;" d="M247.237,377.19c-42.378,0-76.855-34.477-76.855-76.855c0-42.379,34.477-76.856,76.855-76.856
					s76.855,34.477,76.855,76.856C324.092,342.713,289.615,377.19,247.237,377.19z M247.237,238.479
					c-34.107,0-61.855,27.748-61.855,61.856c0,34.107,27.748,61.855,61.855,61.855c34.108,0,61.855-27.748,61.855-61.855
					S281.345,238.479,247.237,238.479z"/>
			</g>
			<g id="XMLID_788_">
				<path style="fill:#1D1D1B;" d="M300.974,246.392h-15v-100.18c0-21.36-17.378-38.737-38.737-38.737S208.5,124.852,208.5,146.212
					v100.18h-15v-100.18c0-29.631,24.106-53.737,53.737-53.737s53.737,24.106,53.737,53.737V246.392z"/>
			</g>
			<g id="XMLID_790_">
				<rect x="239.737" y="277.216" style="fill:#FFFFFF;" width="15" height="38.531"/>
			</g>
		</g>
	</g>
	<g id="XMLID_792_">
		<path style="fill:#1D1D1B;" d="M246.934,494.474L54.789,358.153V0h384.896v358.16L246.934,494.474z M69.789,350.403
			l177.159,125.689l177.737-125.696V15H69.789V350.403z"/>
	</g>
	<g id="XMLID_171_">
		<rect x="85.407" y="30.825" style="fill:#FFFFFF;" width="323.66" height="15"/>
	</g>
</g>
<g>
</g>
<g>
</g>
<g>
</g>
<g>
</g>
<g>
</g>
<g>
</g>
<g>
</g>
<g>
</g>
<g>
</g>
<g>
</g>
<g>
</g>
<g>
</g>
<g>
</g>
<g>
</g>
<g>
</g>
</svg>
